<svg xmlns="http://www.w3.org/2000/svg" version="1.1" xmlns:xlink="http://www.w3.org/1999/xlink" xmlns:svgjs="http://svgjs.dev/svgjs" width="1440" height="560" preserveAspectRatio="none" viewBox="0 0 1440 560"><g mask="url(&quot;#SvgjsMask1008&quot;)" fill="none"><rect width="1440" height="560" x="0" y="0" fill="#0e2a47"></rect><path d="M21.18 -58.87L86.13 -21.37L86.13 53.63L21.18 91.13L-43.77 53.63L-43.77 -21.37zM86.13 278.63L151.09 316.13L151.09 391.13L86.13 428.63L21.18 391.13L21.18 316.13zM216.04 53.63L281 91.13L281 166.13L216.04 203.63L151.09 166.13L151.09 91.13zM151.09 166.13L216.04 203.63L216.04 278.63L151.09 316.13L86.13 278.63L86.13 203.63zM216.04 278.63L281 316.13L281 391.13L216.04 428.63L151.09 391.13L151.09 316.13zM151.09 391.13L216.04 428.63L216.04 503.63L151.09 541.13L86.13 503.63L86.13 428.63zM345.95 278.63L410.9 316.13L410.9 391.13L345.95 428.63L281 391.13L281 316.13zM410.9 -58.87L475.86 -21.37L475.86 53.63L410.9 91.13L345.95 53.63L345.95 -21.37zM410.9 166.13L475.86 203.63L475.86 278.63L410.9 316.13L345.95 278.63L345.95 203.63zM475.86 278.63L540.81 316.13L540.81 391.13L475.86 428.63L410.9 391.13L410.9 316.13zM410.9 391.13L475.86 428.63L475.86 503.63L410.9 541.13L345.95 503.63L345.95 428.63zM475.86 503.63L540.81 541.13L540.81 616.13L475.86 653.63L410.9 616.13L410.9 541.13zM605.76 503.63L670.72 541.13L670.72 616.13L605.76 653.63L540.81 616.13L540.81 541.13zM735.67 278.63L800.63 316.13L800.63 391.13L735.67 428.63L670.72 391.13L670.72 316.13zM735.67 503.63L800.63 541.13L800.63 616.13L735.67 653.63L670.72 616.13L670.72 541.13zM865.58 53.63L930.53 91.13L930.53 166.13L865.58 203.63L800.62 166.13L800.62 91.13zM865.58 278.63L930.53 316.13L930.53 391.13L865.58 428.63L800.62 391.13L800.62 316.13zM865.58 503.63L930.53 541.13L930.53 616.13L865.58 653.63L800.62 616.13L800.62 541.13zM930.53 -58.87L995.49 -21.37L995.49 53.63L930.53 91.13L865.58 53.63L865.58 -21.37zM995.49 53.63L1060.44 91.13L1060.44 166.13L995.49 203.63L930.53 166.13L930.53 91.13zM930.53 166.13L995.49 203.63L995.49 278.63L930.53 316.13L865.58 278.63L865.58 203.63zM995.49 278.63L1060.44 316.13L1060.44 391.13L995.49 428.63L930.53 391.13L930.53 316.13zM1060.44 166.13L1125.39 203.63L1125.39 278.63L1060.44 316.13L995.49 278.63L995.49 203.63zM1190.35 166.13L1255.3 203.63L1255.3 278.63L1190.35 316.13L1125.39 278.63L1125.39 203.63zM1190.35 391.13L1255.3 428.63L1255.3 503.63L1190.35 541.13L1125.39 503.63L1125.39 428.63zM1255.3 503.63L1320.25 541.13L1320.25 616.13L1255.3 653.63L1190.35 616.13L1190.35 541.13zM1320.26 -58.87L1385.21 -21.37L1385.21 53.63L1320.26 91.13L1255.3 53.63L1255.3 -21.37zM1385.21 53.63L1450.16 91.13L1450.16 166.13L1385.21 203.63L1320.26 166.13L1320.26 91.13zM1320.26 166.13L1385.21 203.63L1385.21 278.63L1320.26 316.13L1255.3 278.63L1255.3 203.63zM1385.21 503.63L1450.16 541.13L1450.16 616.13L1385.21 653.63L1320.26 616.13L1320.26 541.13zM1515.12 53.63L1580.07 91.13L1580.07 166.13L1515.12 203.63L1450.16 166.13L1450.16 91.13zM1450.16 391.13L1515.12 428.63L1515.12 503.63L1450.16 541.13L1385.21 503.63L1385.21 428.63z" stroke="#03305d" stroke-width="2"></path><path d="M13.68 -58.87 a7.5 7.5 0 1 0 15 0 a7.5 7.5 0 1 0 -15 0zM78.63 -21.37 a7.5 7.5 0 1 0 15 0 a7.5 7.5 0 1 0 -15 0zM78.63 53.63 a7.5 7.5 0 1 0 15 0 a7.5 7.5 0 1 0 -15 0zM13.68 91.13 a7.5 7.5 0 1 0 15 0 a7.5 7.5 0 1 0 -15 0zM-51.27 53.63 a7.5 7.5 0 1 0 15 0 a7.5 7.5 0 1 0 -15 0zM-51.27 -21.37 a7.5 7.5 0 1 0 15 0 a7.5 7.5 0 1 0 -15 0zM78.63 278.63 a7.5 7.5 0 1 0 15 0 a7.5 7.5 0 1 0 -15 0zM143.59 316.13 a7.5 7.5 0 1 0 15 0 a7.5 7.5 0 1 0 -15 0zM143.59 391.13 a7.5 7.5 0 1 0 15 0 a7.5 7.5 0 1 0 -15 0zM78.63 428.63 a7.5 7.5 0 1 0 15 0 a7.5 7.5 0 1 0 -15 0zM13.68 391.13 a7.5 7.5 0 1 0 15 0 a7.5 7.5 0 1 0 -15 0zM13.68 316.13 a7.5 7.5 0 1 0 15 0 a7.5 7.5 0 1 0 -15 0zM208.54 53.63 a7.5 7.5 0 1 0 15 0 a7.5 7.5 0 1 0 -15 0zM273.5 91.13 a7.5 7.5 0 1 0 15 0 a7.5 7.5 0 1 0 -15 0zM273.5 166.13 a7.5 7.5 0 1 0 15 0 a7.5 7.5 0 1 0 -15 0zM208.54 203.63 a7.5 7.5 0 1 0 15 0 a7.5 7.5 0 1 0 -15 0zM143.59 166.13 a7.5 7.5 0 1 0 15 0 a7.5 7.5 0 1 0 -15 0zM143.59 91.13 a7.5 7.5 0 1 0 15 0 a7.5 7.5 0 1 0 -15 0zM208.54 278.63 a7.5 7.5 0 1 0 15 0 a7.5 7.5 0 1 0 -15 0zM78.63 203.63 a7.5 7.5 0 1 0 15 0 a7.5 7.5 0 1 0 -15 0zM273.5 316.13 a7.5 7.5 0 1 0 15 0 a7.5 7.5 0 1 0 -15 0zM273.5 391.13 a7.5 7.5 0 1 0 15 0 a7.5 7.5 0 1 0 -15 0zM208.54 428.63 a7.5 7.5 0 1 0 15 0 a7.5 7.5 0 1 0 -15 0zM208.54 503.63 a7.5 7.5 0 1 0 15 0 a7.5 7.5 0 1 0 -15 0zM143.59 541.13 a7.5 7.5 0 1 0 15 0 a7.5 7.5 0 1 0 -15 0zM78.63 503.63 a7.5 7.5 0 1 0 15 0 a7.5 7.5 0 1 0 -15 0zM338.45 278.63 a7.5 7.5 0 1 0 15 0 a7.5 7.5 0 1 0 -15 0zM403.4 316.13 a7.5 7.5 0 1 0 15 0 a7.5 7.5 0 1 0 -15 0zM403.4 391.13 a7.5 7.5 0 1 0 15 0 a7.5 7.5 0 1 0 -15 0zM338.45 428.63 a7.5 7.5 0 1 0 15 0 a7.5 7.5 0 1 0 -15 0zM403.4 -58.87 a7.5 7.5 0 1 0 15 0 a7.5 7.5 0 1 0 -15 0zM468.36 -21.37 a7.5 7.5 0 1 0 15 0 a7.5 7.5 0 1 0 -15 0zM468.36 53.63 a7.5 7.5 0 1 0 15 0 a7.5 7.5 0 1 0 -15 0zM403.4 91.13 a7.5 7.5 0 1 0 15 0 a7.5 7.5 0 1 0 -15 0zM338.45 53.63 a7.5 7.5 0 1 0 15 0 a7.5 7.5 0 1 0 -15 0zM338.45 -21.37 a7.5 7.5 0 1 0 15 0 a7.5 7.5 0 1 0 -15 0zM403.4 166.13 a7.5 7.5 0 1 0 15 0 a7.5 7.5 0 1 0 -15 0zM468.36 203.63 a7.5 7.5 0 1 0 15 0 a7.5 7.5 0 1 0 -15 0zM468.36 278.63 a7.5 7.5 0 1 0 15 0 a7.5 7.5 0 1 0 -15 0zM338.45 203.63 a7.5 7.5 0 1 0 15 0 a7.5 7.5 0 1 0 -15 0zM533.31 316.13 a7.5 7.5 0 1 0 15 0 a7.5 7.5 0 1 0 -15 0zM533.31 391.13 a7.5 7.5 0 1 0 15 0 a7.5 7.5 0 1 0 -15 0zM468.36 428.63 a7.5 7.5 0 1 0 15 0 a7.5 7.5 0 1 0 -15 0zM468.36 503.63 a7.5 7.5 0 1 0 15 0 a7.5 7.5 0 1 0 -15 0zM403.4 541.13 a7.5 7.5 0 1 0 15 0 a7.5 7.5 0 1 0 -15 0zM338.45 503.63 a7.5 7.5 0 1 0 15 0 a7.5 7.5 0 1 0 -15 0zM533.31 541.13 a7.5 7.5 0 1 0 15 0 a7.5 7.5 0 1 0 -15 0zM533.31 616.13 a7.5 7.5 0 1 0 15 0 a7.5 7.5 0 1 0 -15 0zM468.36 653.63 a7.5 7.5 0 1 0 15 0 a7.5 7.5 0 1 0 -15 0zM403.4 616.13 a7.5 7.5 0 1 0 15 0 a7.5 7.5 0 1 0 -15 0zM598.26 503.63 a7.5 7.5 0 1 0 15 0 a7.5 7.5 0 1 0 -15 0zM663.22 541.13 a7.5 7.5 0 1 0 15 0 a7.5 7.5 0 1 0 -15 0zM663.22 616.13 a7.5 7.5 0 1 0 15 0 a7.5 7.5 0 1 0 -15 0zM598.26 653.63 a7.5 7.5 0 1 0 15 0 a7.5 7.5 0 1 0 -15 0zM728.17 278.63 a7.5 7.5 0 1 0 15 0 a7.5 7.5 0 1 0 -15 0zM793.13 316.13 a7.5 7.5 0 1 0 15 0 a7.5 7.5 0 1 0 -15 0zM793.13 391.13 a7.5 7.5 0 1 0 15 0 a7.5 7.5 0 1 0 -15 0zM728.17 428.63 a7.5 7.5 0 1 0 15 0 a7.5 7.5 0 1 0 -15 0zM663.22 391.13 a7.5 7.5 0 1 0 15 0 a7.5 7.5 0 1 0 -15 0zM663.22 316.13 a7.5 7.5 0 1 0 15 0 a7.5 7.5 0 1 0 -15 0zM728.17 503.63 a7.5 7.5 0 1 0 15 0 a7.5 7.5 0 1 0 -15 0zM793.13 541.13 a7.5 7.5 0 1 0 15 0 a7.5 7.5 0 1 0 -15 0zM793.13 616.13 a7.5 7.5 0 1 0 15 0 a7.5 7.5 0 1 0 -15 0zM728.17 653.63 a7.5 7.5 0 1 0 15 0 a7.5 7.5 0 1 0 -15 0zM858.08 53.63 a7.5 7.5 0 1 0 15 0 a7.5 7.5 0 1 0 -15 0zM923.03 91.13 a7.5 7.5 0 1 0 15 0 a7.5 7.5 0 1 0 -15 0zM923.03 166.13 a7.5 7.5 0 1 0 15 0 a7.5 7.5 0 1 0 -15 0zM858.08 203.63 a7.5 7.5 0 1 0 15 0 a7.5 7.5 0 1 0 -15 0zM793.12 166.13 a7.5 7.5 0 1 0 15 0 a7.5 7.5 0 1 0 -15 0zM793.12 91.13 a7.5 7.5 0 1 0 15 0 a7.5 7.5 0 1 0 -15 0zM858.08 278.63 a7.5 7.5 0 1 0 15 0 a7.5 7.5 0 1 0 -15 0zM923.03 316.13 a7.5 7.5 0 1 0 15 0 a7.5 7.5 0 1 0 -15 0zM923.03 391.13 a7.5 7.5 0 1 0 15 0 a7.5 7.5 0 1 0 -15 0zM858.08 428.63 a7.5 7.5 0 1 0 15 0 a7.5 7.5 0 1 0 -15 0zM793.12 391.13 a7.5 7.5 0 1 0 15 0 a7.5 7.5 0 1 0 -15 0zM793.12 316.13 a7.5 7.5 0 1 0 15 0 a7.5 7.5 0 1 0 -15 0zM858.08 503.63 a7.5 7.5 0 1 0 15 0 a7.5 7.5 0 1 0 -15 0zM923.03 541.13 a7.5 7.5 0 1 0 15 0 a7.5 7.5 0 1 0 -15 0zM923.03 616.13 a7.5 7.5 0 1 0 15 0 a7.5 7.5 0 1 0 -15 0zM858.08 653.63 a7.5 7.5 0 1 0 15 0 a7.5 7.5 0 1 0 -15 0zM793.12 616.13 a7.5 7.5 0 1 0 15 0 a7.5 7.5 0 1 0 -15 0zM793.12 541.13 a7.5 7.5 0 1 0 15 0 a7.5 7.5 0 1 0 -15 0zM923.03 -58.87 a7.5 7.5 0 1 0 15 0 a7.5 7.5 0 1 0 -15 0zM987.99 -21.37 a7.5 7.5 0 1 0 15 0 a7.5 7.5 0 1 0 -15 0zM987.99 53.63 a7.5 7.5 0 1 0 15 0 a7.5 7.5 0 1 0 -15 0zM858.08 -21.37 a7.5 7.5 0 1 0 15 0 a7.5 7.5 0 1 0 -15 0zM1052.94 91.13 a7.5 7.5 0 1 0 15 0 a7.5 7.5 0 1 0 -15 0zM1052.94 166.13 a7.5 7.5 0 1 0 15 0 a7.5 7.5 0 1 0 -15 0zM987.99 203.63 a7.5 7.5 0 1 0 15 0 a7.5 7.5 0 1 0 -15 0zM987.99 278.63 a7.5 7.5 0 1 0 15 0 a7.5 7.5 0 1 0 -15 0zM1052.94 316.13 a7.5 7.5 0 1 0 15 0 a7.5 7.5 0 1 0 -15 0zM1052.94 391.13 a7.5 7.5 0 1 0 15 0 a7.5 7.5 0 1 0 -15 0zM987.99 428.63 a7.5 7.5 0 1 0 15 0 a7.5 7.5 0 1 0 -15 0zM1117.89 203.63 a7.5 7.5 0 1 0 15 0 a7.5 7.5 0 1 0 -15 0zM1117.89 278.63 a7.5 7.5 0 1 0 15 0 a7.5 7.5 0 1 0 -15 0zM1182.85 166.13 a7.5 7.5 0 1 0 15 0 a7.5 7.5 0 1 0 -15 0zM1247.8 203.63 a7.5 7.5 0 1 0 15 0 a7.5 7.5 0 1 0 -15 0zM1247.8 278.63 a7.5 7.5 0 1 0 15 0 a7.5 7.5 0 1 0 -15 0zM1182.85 316.13 a7.5 7.5 0 1 0 15 0 a7.5 7.5 0 1 0 -15 0zM1182.85 391.13 a7.5 7.5 0 1 0 15 0 a7.5 7.5 0 1 0 -15 0zM1247.8 428.63 a7.5 7.5 0 1 0 15 0 a7.5 7.5 0 1 0 -15 0zM1247.8 503.63 a7.5 7.5 0 1 0 15 0 a7.5 7.5 0 1 0 -15 0zM1182.85 541.13 a7.5 7.5 0 1 0 15 0 a7.5 7.5 0 1 0 -15 0zM1117.89 503.63 a7.5 7.5 0 1 0 15 0 a7.5 7.5 0 1 0 -15 0zM1117.89 428.63 a7.5 7.5 0 1 0 15 0 a7.5 7.5 0 1 0 -15 0zM1312.75 541.13 a7.5 7.5 0 1 0 15 0 a7.5 7.5 0 1 0 -15 0zM1312.75 616.13 a7.5 7.5 0 1 0 15 0 a7.5 7.5 0 1 0 -15 0zM1247.8 653.63 a7.5 7.5 0 1 0 15 0 a7.5 7.5 0 1 0 -15 0zM1182.85 616.13 a7.5 7.5 0 1 0 15 0 a7.5 7.5 0 1 0 -15 0zM1312.76 -58.87 a7.5 7.5 0 1 0 15 0 a7.5 7.5 0 1 0 -15 0zM1377.71 -21.37 a7.5 7.5 0 1 0 15 0 a7.5 7.5 0 1 0 -15 0zM1377.71 53.63 a7.5 7.5 0 1 0 15 0 a7.5 7.5 0 1 0 -15 0zM1312.76 91.13 a7.5 7.5 0 1 0 15 0 a7.5 7.5 0 1 0 -15 0zM1247.8 53.63 a7.5 7.5 0 1 0 15 0 a7.5 7.5 0 1 0 -15 0zM1247.8 -21.37 a7.5 7.5 0 1 0 15 0 a7.5 7.5 0 1 0 -15 0zM1442.66 91.13 a7.5 7.5 0 1 0 15 0 a7.5 7.5 0 1 0 -15 0zM1442.66 166.13 a7.5 7.5 0 1 0 15 0 a7.5 7.5 0 1 0 -15 0zM1377.71 203.63 a7.5 7.5 0 1 0 15 0 a7.5 7.5 0 1 0 -15 0zM1312.76 166.13 a7.5 7.5 0 1 0 15 0 a7.5 7.5 0 1 0 -15 0zM1377.71 278.63 a7.5 7.5 0 1 0 15 0 a7.5 7.5 0 1 0 -15 0zM1312.76 316.13 a7.5 7.5 0 1 0 15 0 a7.5 7.5 0 1 0 -15 0zM1377.71 503.63 a7.5 7.5 0 1 0 15 0 a7.5 7.5 0 1 0 -15 0zM1442.66 541.13 a7.5 7.5 0 1 0 15 0 a7.5 7.5 0 1 0 -15 0zM1442.66 616.13 a7.5 7.5 0 1 0 15 0 a7.5 7.5 0 1 0 -15 0zM1377.71 653.63 a7.5 7.5 0 1 0 15 0 a7.5 7.5 0 1 0 -15 0zM1312.76 616.13 a7.5 7.5 0 1 0 15 0 a7.5 7.5 0 1 0 -15 0zM1312.76 541.13 a7.5 7.5 0 1 0 15 0 a7.5 7.5 0 1 0 -15 0zM1507.62 53.63 a7.5 7.5 0 1 0 15 0 a7.5 7.5 0 1 0 -15 0zM1572.57 91.13 a7.5 7.5 0 1 0 15 0 a7.5 7.5 0 1 0 -15 0zM1572.57 166.13 a7.5 7.5 0 1 0 15 0 a7.5 7.5 0 1 0 -15 0zM1507.62 203.63 a7.5 7.5 0 1 0 15 0 a7.5 7.5 0 1 0 -15 0zM1442.66 391.13 a7.5 7.5 0 1 0 15 0 a7.5 7.5 0 1 0 -15 0zM1507.62 428.63 a7.5 7.5 0 1 0 15 0 a7.5 7.5 0 1 0 -15 0zM1507.62 503.63 a7.5 7.5 0 1 0 15 0 a7.5 7.5 0 1 0 -15 0zM1377.71 428.63 a7.5 7.5 0 1 0 15 0 a7.5 7.5 0 1 0 -15 0z" fill="#03305d"></path><path d="M62.54 372.61L105.84 397.61L105.84 447.61L62.54 472.61L19.24 447.61L19.24 397.61zM192.45 297.61L235.75 322.61L235.75 372.61L192.45 397.61L149.15 372.61L149.15 322.61zM192.45 447.61L235.75 472.61L235.75 522.61L192.45 547.61L149.15 522.61L149.15 472.61zM279.06 147.61L322.36 172.61L322.36 222.61L279.06 247.61L235.75 222.61L235.75 172.61zM279.06 447.61L322.36 472.61L322.36 522.61L279.06 547.61L235.75 522.61L235.75 472.61zM365.66 -2.39L408.96 22.61L408.96 72.61L365.66 97.61L322.36 72.61L322.36 22.61zM408.96 222.61L452.27 247.61L452.27 297.61L408.96 322.61L365.66 297.61L365.66 247.61zM452.27 -2.39L495.57 22.61L495.57 72.61L452.27 97.61L408.96 72.61L408.96 22.61zM495.57 222.61L538.87 247.61L538.87 297.61L495.57 322.61L452.27 297.61L452.27 247.61zM452.27 297.61L495.57 322.61L495.57 372.61L452.27 397.61L408.96 372.61L408.96 322.61zM538.87 -2.39L582.17 22.61L582.17 72.61L538.87 97.61L495.57 72.61L495.57 22.61zM538.87 147.61L582.17 172.61L582.17 222.61L538.87 247.61L495.57 222.61L495.57 172.61zM885.29 -2.39L928.59 22.61L928.59 72.61L885.29 97.61L841.99 72.61L841.99 22.61zM885.29 147.61L928.59 172.61L928.59 222.61L885.29 247.61L841.99 222.61L841.99 172.61zM971.9 -2.39L1015.2 22.61L1015.2 72.61L971.9 97.61L928.59 72.61L928.59 22.61zM971.9 447.61L1015.2 472.61L1015.2 522.61L971.9 547.61L928.59 522.61L928.59 472.61zM1101.8 72.61L1145.11 97.61L1145.11 147.61L1101.8 172.61L1058.5 147.61L1058.5 97.61zM1188.41 72.61L1231.71 97.61L1231.71 147.61L1188.41 172.61L1145.11 147.61L1145.11 97.61zM1188.41 372.61L1231.71 397.61L1231.71 447.61L1188.41 472.61L1145.11 447.61L1145.11 397.61zM1361.62 72.61L1404.92 97.61L1404.92 147.61L1361.62 172.61L1318.32 147.61L1318.32 97.61zM1361.62 222.61L1404.92 247.61L1404.92 297.61L1361.62 322.61L1318.32 297.61L1318.32 247.61zM1448.22 222.61L1491.53 247.61L1491.53 297.61L1448.22 322.61L1404.92 297.61L1404.92 247.61zM1448.22 372.61L1491.53 397.61L1491.53 447.61L1448.22 472.61L1404.92 447.61L1404.92 397.61z" stroke="rgba(6, 80, 156, 0.93)" stroke-width="2"></path></g><defs><mask id="SvgjsMask1008"><rect width="1440" height="560" fill="#ffffff"></rect></mask></defs></svg>