<svg xmlns="http://www.w3.org/2000/svg" version="1.1" xmlns:xlink="http://www.w3.org/1999/xlink" xmlns:svgjs="http://svgjs.dev/svgjs" width="1440" height="560" preserveAspectRatio="none" viewBox="0 0 1440 560"><g mask="url(&quot;#SvgjsMask1411&quot;)" fill="none"><rect width="1440" height="560" x="0" y="0" fill="#0e2a47"></rect><use xlink:href="#SvgjsG1428" transform="translate(0, 0)" fill="#0f457b"></use><use xlink:href="#SvgjsG1428" transform="translate(0, 480)" fill="#0f457b"></use><use xlink:href="#SvgjsG1428" transform="translate(480, 0)" fill="#0f457b"></use><use xlink:href="#SvgjsG1428" transform="translate(480, 480)" fill="#0f457b"></use><use xlink:href="#SvgjsG1428" transform="translate(960, 0)" fill="#0f457b"></use><use xlink:href="#SvgjsG1428" transform="translate(960, 480)" fill="#0f457b"></use></g><defs><mask id="SvgjsMask1411"><rect width="1440" height="560" fill="#ffffff"></rect></mask><g id="SvgjsG1418"><path d="M7.713 15.485C3.459 15.485 0 12.025 0 7.768 0 3.513 3.459 0.051 7.713 0.051S15.432 3.513 15.432 7.768c0 4.257-3.465 7.716-7.719 7.717z m0-1.91c3.201 0 5.81-2.604 5.81-5.809 0-3.199-2.61-5.807-5.81-5.807-3.202 0-5.804 2.609-5.804 5.807-0.001 3.206 2.602 5.809 5.804 5.809z"></path><path d="M7.753 8.787a0.574 0.574 0 0 1-0.554-0.042 0.578 0.578 0 0 1-0.259-0.399L6.931 3.862a0.58 0.58 0 0 1 1.162 0v3.478l2.975-1.4a0.578 0.578 0 0 1 0.773 0.275c0.138 0.292 0.011 0.637-0.276 0.774l-3.81 1.798z"></path></g><g id="SvgjsG1413"><path d="M2.524 8.637H0.014V7.308h2.51v1.329zM3.656 4.576L1.884 2.804l0.935-0.935 1.772 1.772-0.935 0.935z m0 6.817l0.935 0.935-1.772 1.773-0.934-0.936 1.771-1.772z m4.997-8.884h-1.33V-0.002h1.33v2.511z m-1.33 10.952h1.33v2.51h-1.33v-2.509zM12.344 4.576l-0.96-0.935 1.796-1.772 0.935 0.935-1.772 1.772z m0 6.792l1.771 1.797-0.935 0.936-1.771-1.774 0.936-0.96z m3.643-4.06v1.329h-2.51V7.308h2.509z"></path><path d="M3.702 7.984a4.184 4.184 0 1 0 8.368 0 4.184 4.184 0 1 0-8.368 0"></path></g><g id="SvgjsG1426"><path d="M15.233 9.431c0.295 0 0.569-0.239 0.61-0.532 0 0 0.056-0.411 0.056-0.899s-0.056-0.899-0.056-0.899c-0.041-0.292-0.315-0.531-0.61-0.53h-1.524c-0.295 0-0.602-0.188-0.681-0.418s-0.188-0.967 0.021-1.176l1.078-1.077c0.209-0.209 0.225-0.565 0.036-0.792l-1.268-1.268c-0.227-0.189-0.583-0.173-0.792 0.036l-1.078 1.077c-0.208 0.209-0.556 0.293-0.772 0.187s-0.822-0.552-0.821-0.847V0.767c0-0.295-0.239-0.569-0.531-0.61 0 0-0.411-0.057-0.9-0.056s-0.899 0.057-0.899 0.056c-0.293 0.04-0.532 0.315-0.532 0.61v1.524c0 0.295-0.188 0.601-0.418 0.681s-0.967 0.188-1.176-0.021l-1.078-1.078C3.689 1.665 3.333 1.649 3.107 1.837l-1.268 1.268c-0.189 0.227-0.173 0.583 0.036 0.792l1.077 1.078c0.209 0.209 0.293 0.556 0.187 0.772s-0.552 0.822-0.847 0.822H0.767c-0.295 0-0.569 0.239-0.61 0.531 0 0-0.057 0.411-0.056 0.899s0.057 0.899 0.056 0.9c0.04 0.293 0.315 0.532 0.61 0.532h1.525c0.295 0 0.601 0.188 0.681 0.417 0.079 0.23 0.188 0.967-0.02 1.176l-1.078 1.077C1.667 12.311 1.651 12.667 1.84 12.893l1.267 1.268c0.227 0.189 0.583 0.173 0.792-0.036l1.077-1.077c0.209-0.208 0.556-0.292 0.772-0.187s0.821 0.553 0.822 0.848v1.524c0 0.295 0.239 0.569 0.532 0.61 0 0 0.411 0.057 0.899 0.057s0.899-0.056 0.899-0.057c0.293-0.04 0.531-0.315 0.532-0.609v-1.524c0-0.295 0.188-0.602 0.418-0.681 0.23-0.079 0.967-0.188 1.176 0.021l1.077 1.077c0.209 0.209 0.565 0.225 0.792 0.036l1.268-1.267c0.189-0.227 0.173-0.583-0.036-0.792l-1.078-1.077c-0.209-0.209-0.293-0.557-0.186-0.773 0.106-0.216 0.552-0.822 0.847-0.822h1.525zM8 10.892c-1.597 0-2.891-1.294-2.891-2.892 0-1.596 1.295-2.891 2.891-2.891S10.892 6.404 10.892 8 9.597 10.892 8 10.892z"></path></g><g id="SvgjsG1414"><path d="M13.828 10.843V16H9.151V13.513c0-1.275-1.154-1.693-1.154-1.693s-1.154 0.418-1.154 1.693V16H2.24V10.843l3.881-1.874V3.994L8.032 0l1.914 3.994v4.975L13.828 10.843zM7.374 5.885v1.052h1.311v-1.053c0-1.056-0.656-1.402-0.656-1.401s-0.655 0.346-0.655 1.401z"></path></g><g id="SvgjsG1420"><path d="M0.012 7.384c0 0.014 0.006 0.028 0.007 0.042v-0.083c-0.002 0.013-0.007 0.026-0.007 0.041z"></path><path d="M4.128 6.119a0.536 0.536 0 1 0 1.071 0 0.536 0.536 0 1 0-1.071 0"></path><path d="M10.577 8.79zM13.953 12.705c-0.71 0-1.559-0.8-2.458-1.646a78.836 78.836 0 0 0-0.298-0.28l-0.305-1.305a0.574 0.574 0 0 0-1.133 0.085c-0.896-0.654-1.903-1.144-3.098-1.144v-5.147L3.229 1.338l-3.217 1.931v11.581h0.643V13.992h2.146v0.857h0.643V13.992h2.574v0.857h0.643V9.702c1.516 0 2.755 1.166 3.953 2.294 1.091 1.026 2.12 1.996 3.339 1.996h0.215v0.857h0.643V13.992h0.643v-1.287h-1.501zM2.8 13.562H0.657v-0.857h2.144v0.857z m0-1.287H0.657v-0.858h2.144v0.858z m0-1.287H0.657v-0.858h2.144v0.858z m3.217-2.574H5.357l-0.255-1.09a0.575 0.575 0 0 0-1.121 0.262l0.194 0.829H0.657V3.697h5.361v4.718z"></path></g><g id="SvgjsG1424"><path d="M8.655 0C5.901 0 3.36 2.069 2.833 4.347 2.715 4.854 2.582 6.177 2.582 6.177L1.318 9.37A0.469 0.469 0 0 0 1.28 9.561a0.488 0.488 0 0 0 0.489 0.488h0.814v1.697c0 1.324 1.07 2.396 2.392 2.396h0.952V16h3.535v-0.829h1.44V16h1.503V10.847c1.413-1.111 2.322-2.838 2.322-4.774C14.726 2.718 12.01 0 8.655 0zM4.077 7.387a0.682 0.682 0 0 1-0.682-0.682c0-0.375 0.306-0.68 0.682-0.68a0.681 0.681 0 0 1 0.679 0.68c0 0.377-0.306 0.682-0.68 0.682z m5.385 4.46h1.44v0.779h-1.44v-0.779z m0-1.108h1.44v0.778h-1.44V10.739z m0 2.215h1.44v0.78h-1.44v-0.78z m0 1.109h1.44v0.78h-1.44V14.062z m0-4.431h1.448c-0.003 0.057-0.009 0.113-0.009 0.172v0.607h-1.44V9.632z m3.986-4.488a1.557 1.557 0 0 1-0.427 1.071c-0.045 0.592-0.42 1.091-0.942 1.316v0.005c-0.637 0.372-1.019 1.005-1.135 1.766H10.354v-1.765c0.004-0.55 0.177-0.902 0.539-1.119a1.907 1.907 0 0 0 0.356-0.26 1.229 1.229 0 0 1 0.659 0.556c0.032 0.053 0.088 0.083 0.144 0.082 0.027 0 0.055-0.007 0.08-0.021a0.163 0.163 0 0 0 0.064-0.224h-0.001a1.563 1.563 0 0 0-0.721-0.657c0.15-0.231 0.234-0.506 0.23-0.837 0-0.002 0.002-0.003 0.003-0.006 0-0.149-0.022-0.294-0.062-0.431a1.572 1.572 0 0 0 0.871-0.486 0.164 0.164 0 0 0-0.011-0.234 0.164 0.164 0 0 0-0.232 0.011 1.248 1.248 0 0 1-0.755 0.396c-0.24-0.444-0.686-0.76-1.209-0.818a1.235 1.235 0 0 1 0.353-0.724 0.166 0.166 0 0 0 0-0.233 0.166 0.166 0 0 0-0.234 0 1.572 1.572 0 0 0-0.45 0.937 1.244 1.244 0 0 1-1.088-1.234c0-0.09-0.075-0.165-0.163-0.165-0.093 0-0.166 0.075-0.167 0.165 0 0.107 0.01 0.21 0.031 0.31a1.24 1.24 0 0 1-1.235 0.229s-0.002 0-0.003-0.001a1.225 1.225 0 0 1-0.453-0.289c-0.063-0.064-0.168-0.064-0.233 0-0.065 0.064-0.065 0.168 0 0.233a1.59 1.59 0 0 0 0.452 0.316c-0.033 0.411-0.271 0.764-0.605 0.963a1.578 1.578 0 0 0-0.84-0.639 0.166 0.166 0 0 0-0.209 0.107c-0.024 0.087 0.02 0.179 0.108 0.207a1.247 1.247 0 0 1 0.63 0.455 1.221 1.221 0 0 1-0.32 0.042h-0.02a1.568 1.568 0 0 0-1.096 0.444 0.161 0.161 0 0 0-0.003 0.233 0.162 0.162 0 0 0 0.231 0.003 1.236 1.236 0 0 1 0.868-0.35h0.019c0.794 0 1.453-0.591 1.557-1.358 0.113 0.024 0.226 0.038 0.34 0.038A1.574 1.574 0 0 0 8.699 2.88a1.558 1.558 0 0 0 0.45 0.583 1.556 1.556 0 0 0-0.341 0.82 1.622 1.622 0 0 0-0.256-0.021 1.557 1.557 0 0 0-0.736 0.185c-0.08 0.043-0.111 0.142-0.068 0.224 0.03 0.055 0.088 0.087 0.147 0.087a0.144 0.144 0 0 0 0.075-0.02 1.25 1.25 0 0 1 0.583-0.146c0.087 0 0.173 0.01 0.256 0.027a1.576 1.576 0 0 0 0.428 0.92c0.033 0.034 0.076 0.051 0.118 0.051 0.04 0 0.082-0.015 0.115-0.046 0.067-0.063 0.069-0.167 0.005-0.232h-0.001a1.253 1.253 0 0 1-0.345-0.829c0-0.004 0.001-0.008 0-0.013v-0.018a1.237 1.237 0 0 1 0.299-0.81 1.57 1.57 0 0 0 0.701 0.166s0.001 0 0.003 0h0.003a1.244 1.244 0 0 1 1.241 1.24 1.566 1.566 0 0 0-0.401-0.052c-0.196 0-0.395 0.036-0.587 0.114a0.164 0.164 0 0 0-0.091 0.215c0.035 0.084 0.129 0.125 0.214 0.09a1.247 1.247 0 0 1 0.464-0.091c0.124 0 0.248 0.019 0.363 0.055a0.953 0.953 0 0 1-0.242 0.464 0.14 0.14 0 0 0-0.025 0.029c-0.094 0.092-0.207 0.177-0.346 0.262-0.477 0.278-0.706 0.784-0.701 1.403V9.301h-0.563V7.624c0-0.616-0.386-1.201-0.873-1.409-0.232-0.09-0.474-0.241-0.65-0.438a1.558 1.558 0 0 1-0.878 0.271 1.555 1.555 0 0 1-0.877-0.269 1.581 1.581 0 0 1-0.87 0.26c-0.883 0-1.596-0.715-1.597-1.597 0-0.659 0.398-1.224 0.969-1.467 0.154-0.703 0.777-1.229 1.527-1.23 0.04 0 0.076 0.003 0.113 0.006a1.567 1.567 0 0 1 1.295-0.684c0.266 0 0.516 0.066 0.736 0.185a1.558 1.558 0 0 1 1.925 0.158 1.553 1.553 0 0 1 0.365-0.044c0.633 0 1.18 0.381 1.424 0.926 0.642 0.195 1.11 0.79 1.11 1.496a1.576 1.576 0 0 1-0.054 0.408 1.561 1.561 0 0 1 0.321 0.948z"></path></g><g id="SvgjsG1425"><path d="M13.818 12.056c0.601-0.2 0.926-0.852 0.727-1.46l-0.435 0.142c0.118 0.365-0.079 0.757-0.438 0.877L2.216 15.562l0.148 0.438 11.454-3.944zM3.267 5.236c0.629-0.186 0.988-0.855 0.804-1.492-0.182-0.638-0.845-1.002-1.473-0.815-0.631 0.185-0.994 0.856-0.808 1.493 0.185 0.636 0.843 1.001 1.477 0.814"></path><path d="M2.78 6.905c-0.627-1.21 1.173-2.188 1.835-1.016l1.294 2.483 2.46-0.707c0.406-0.118 0.968 0.331 0.969 0.86l0.015 3.537c0.003 0.877-1.287 0.882-1.288-0.008-0.002-0.822-0.024-2.579-0.024-2.578L5.473 10.256c-0.561 0.164-1.026-0.119-1.247-0.538l-1.446-2.814z"></path><path d="M6.758 7.464V0H6.243v7.608l0.515-0.144zM1.6 8.517c-0.354-0.702 0.557-1.168 0.911-0.466l1.11 2.2c0.242 0.455 0.714 0.764 1.258 0.764 0.17 0 0.328-0.044 0.483-0.077l1.4-0.415c0.743-0.227 1.031 0.763 0.282 0.986l-1.474 0.433c-0.22 0.069-0.457 0.104-0.702 0.104-0.948 0-1.767-0.542-2.171-1.334L1.6 8.517z"></path></g><g id="SvgjsG1416"><path d="M8.828 1.361C8.627 0.58 7.913 0 7.069 0 6.062 0 5.248 0.81 5.248 1.815c0 0.17 0.02 0.324 0.063 0.477h0.73c0.054 0.126 0.112 0.198 0.112 0.198a1.216 1.216 0 0 0 0.999 0.522 1.222 1.222 0 0 0 1.223-1.222c0-0.155 0.04-0.295-0.026-0.428h0.48v-0.001z m-0.051 10.853c-0.191 0.195-0.454 0.342-0.752 0.343V8.603l2.737-0.787 0.685 1.351L8.777 12.214z"></path><path d="M6.48 3.166a0.979 0.979 0 0 0-0.735-0.327c-0.311 0-0.59 0.144-0.769 0.37l-2.171 3.318a0.972 0.972 0 0 0-0.139 0.504 0.984 0.984 0 0 0 0.436 0.819l2.914 1.617V12.218A0.705 0.705 0 0 0 6.72 12.924c0.387 0 0.703-0.316 0.703-0.706V8.782s0.093-0.547-0.529-0.847l-1.817-0.95 1.324-2.022 0.703 1.104c0.14 0.222 0.33 0.31 0.502 0.306l1.806-0.006c0.734 0 0.734-0.954 0-0.951H7.949L6.48 3.166z m7.985 4.511c0.029 0.028 0.047 0.064 0.047 0.11 0 0.086-0.074 0.159-0.16 0.159-0.024 0-0.04 0-0.058-0.007-0.312-0.133-0.51-0.216-0.872-0.216-0.241 0-0.536 0.083-0.878 0.362l-0.317-0.626c0.395-0.119 0.72-0.224 1.058-0.224 0.541 0 0.826 0.112 1.178 0.444z"></path><path d="M2.349 8.158l3.058 1.687 0.007 0.677L1.922 8.599c-0.253-0.13-0.593-0.206-0.834-0.207-0.361 0-0.56 0.083-0.87 0.217-0.019 0.007-0.035 0.007-0.058 0.007A0.161 0.161 0 0 1 0 8.458c0-0.047 0.018-0.083 0.047-0.111 0.354-0.332 0.715-0.444 1.256-0.444 0.277 0 0.614 0.032 1.048 0.256z m0.283 6.204c0.996 0 1.803-0.807 1.804-1.805S3.629 10.752 2.632 10.752c-0.996 0-1.803 0.806-1.802 1.805 0 0.997 0.807 1.805 1.803 1.805zM0.031 12.557c0-1.437 1.166-2.605 2.601-2.605 1.44 0 2.605 1.167 2.605 2.605 0 1.437-1.165 2.604-2.605 2.604C1.197 15.161 0.031 13.994 0.031 12.557z m13.364 1.805A1.803 1.803 0 0 0 15.2 12.557 1.804 1.804 0 0 0 13.395 10.752c-0.993 0-1.8 0.807-1.801 1.805 0 0.998 0.807 1.805 1.801 1.805z m-2.6-1.805c0-1.437 1.163-2.605 2.6-2.605C14.832 9.952 16 11.12 16 12.557s-1.168 2.604-2.605 2.603c-1.437 0-2.6-1.166-2.6-2.603z m2.027-2.975L11.558 7.053a0.981 0.981 0 0 0-0.86-0.512h-0.824a0.293 0.293 0 0 0-0.291 0.295c0 0.163 0.13 0.292 0.292 0.292l0.825-0.005c0.14 0 0.295 0.094 0.353 0.23l1.191 2.429 0.58-0.201z"></path></g><g id="SvgjsG1421"><path d="M9.232 8.281a0.793 0.793 0 0 0 1.012-0.494c0.144-0.421-0.076-0.877-0.492-1.023-0.415-0.146-0.867 0.076-1.011 0.496-0.141 0.417 0.076 0.876 0.491 1.021z"></path><path d="M15.745 3.046S13.058 2.72 7.478 2.72C3.362 2.72 0 3.046 0 3.046s1.394 0.621 1.152 2.545 2.001-0.241 2.838 1.492l3.758-1.152-0.246 2.535-1.588 0.393a0.805 0.805 0 0 0-0.357 0.19L2.07 12.453c-0.206 0.197-0.21 0.529-0.012 0.734 0.195 0.208 0.523 0.216 0.726 0.019l2.626-2.557 3.213-0.795-0.023 0.006 0.536-0.137 0.491 0.565a0.406 0.406 0 0 0 0.299 0.136l1.731 0.006c0.217 0 0.397-0.179 0.397-0.403 0-0.194-0.133-0.344-0.31-0.388L10.453 5.104 15.824 3.459c0.256-0.112 0.236-0.377-0.079-0.413z m-4.389 6.576c-0.394 0-1.05-0.003-1.249-0.003-0.188-0.216-0.933-1.066-0.933-1.066-0.01-0.016-0.029-0.019-0.039-0.029-0.189-0.223-0.488-0.338-0.787-0.266l-0.466 0.116 0.249-2.56 1.968-0.602 1.257 4.41z"></path></g><g id="SvgjsG1423"><path d="M10.596 3.917a0.64 0.64 0 0 0-0.639 0.641c0 0.354 0.287 0.64 0.639 0.64a0.639 0.639 0 0 0 0.639-0.64 0.639 0.639 0 0 0-0.639-0.641z m-0.151 5.25a0.642 0.642 0 0 0 0.643 0.641c0.352 0 0.638-0.286 0.637-0.64a0.639 0.639 0 0 0-0.637-0.641 0.641 0.641 0 0 0-0.642 0.641z m-4.678-5.945a0.641 0.641 0 0 0 0 1.282 0.64 0.64 0 0 0 0.642-0.64 0.641 0.641 0 0 0-0.642-0.642z"></path><path d="M8.659 0C5.904 0 3.363 2.068 2.835 4.347c-0.119 0.507-0.25 1.83-0.25 1.829L1.316 9.37A0.488 0.488 0 0 0 1.28 9.561a0.491 0.491 0 0 0 0.491 0.489h0.814v1.697c0 1.323 1.072 2.395 2.394 2.395h0.951V16H12.408V10.847c1.413-1.111 2.32-2.838 2.32-4.775C14.728 2.718 12.01 0 8.659 0z m-4.583 7.387c-0.372 0-0.675-0.304-0.675-0.679a0.677 0.677 0 0 1 0.675-0.677c0.375 0 0.68 0.303 0.68 0.677a0.68 0.68 0 0 1-0.68 0.679z m8.959-0.918l-0.631 0.632-0.77-0.543c-0.148 0.077-0.304 0.139-0.467 0.18l-0.142 0.838h0.294l0.079 0.448c0.031 0.008 0.062 0.013 0.092 0.024 0.079 0.029 0.152 0.067 0.22 0.11l0.355-0.25 0.292 0.291-0.262 0.371c0.056 0.1 0.101 0.206 0.125 0.318l0.429 0.074v0.412l-0.446 0.076c-0.009 0.032-0.013 0.063-0.024 0.094a1.147 1.147 0 0 1-0.112 0.223l0.251 0.353-0.292 0.291-0.369-0.262a1.149 1.149 0 0 1-0.318 0.126l-0.075 0.429H10.851l-0.074-0.448c-0.032-0.009-0.064-0.013-0.096-0.025a1.174 1.174 0 0 1-0.221-0.11l-0.356 0.252L9.815 10.08l0.262-0.37a1.151 1.151 0 0 1-0.125-0.319l-0.431-0.074v-0.411l0.45-0.077c0.008-0.032 0.013-0.063 0.025-0.094 0.029-0.079 0.066-0.152 0.109-0.22l-0.251-0.356 0.291-0.291 0.371 0.262a1.174 1.174 0 0 1 0.317-0.125l0.064-0.372h-0.776L9.96 6.704c-0.035-0.011-0.07-0.02-0.104-0.034a2.221 2.221 0 0 1-0.352-0.168l-0.744 0.524-0.63-0.632 0.542-0.767a2.184 2.184 0 0 1-0.181-0.469l-0.894-0.154V4.27l-0.449 0.078c-0.007 0.022-0.009 0.044-0.017 0.065a1.402 1.402 0 0 1-0.109 0.223l0.345 0.489-0.416 0.414-0.506-0.357a1.438 1.438 0 0 1-0.294 0.116l-0.102 0.586-0.584 0-0.106-0.611c-0.02-0.007-0.042-0.009-0.062-0.017a1.43 1.43 0 0 1-0.226-0.11l-0.49 0.345-0.414-0.415 0.359-0.508a1.485 1.485 0 0 1-0.112-0.291L3.824 4.176V3.589l0.608-0.105c0.007-0.022 0.012-0.043 0.02-0.063 0.029-0.08 0.068-0.154 0.109-0.225l-0.345-0.488 0.413-0.415 0.508 0.358a1.439 1.439 0 0 1 0.295-0.117l0.102-0.586h0.584L6.224 2.56c0.021 0.007 0.043 0.008 0.063 0.016 0.08 0.03 0.154 0.069 0.225 0.11l0.489-0.344 0.415 0.414-0.359 0.507a1.397 1.397 0 0 1 0.115 0.293l0.586 0.101v0.427l0.768-0.132c0.011-0.035 0.02-0.07 0.033-0.105 0.046-0.126 0.104-0.243 0.17-0.355l-0.528-0.74 0.634-0.633 0.77 0.544a2.192 2.192 0 0 1 0.468-0.181l0.151-0.894h0.894l0.162 0.928c0.035 0.01 0.069 0.02 0.104 0.033 0.124 0.046 0.241 0.104 0.352 0.168l0.743-0.523 0.629 0.631-0.542 0.77c0.077 0.148 0.138 0.304 0.18 0.466l0.895 0.154v0.894l-0.929 0.16c-0.011 0.035-0.02 0.07-0.032 0.104-0.046 0.125-0.104 0.242-0.17 0.353l0.525 0.743z"></path></g><g id="SvgjsG1427"><path d="M15.979 14.91H0L7.99 1.068l7.989 13.842zM3.175 13.076h9.629L7.99 4.735 3.175 13.076h0z" fill-rule="evenodd"></path><path d="M7.348 7.475h1.267v3.431h-1.267V7.475z m0 4.008h1.267v1.01h-1.267v-1.01z" fill-rule="evenodd"></path></g><g id="SvgjsG1419"><path d="M0 10.392a3.585 3.585 0 1 0 7.169 0 3.585 3.585 0 1 0-7.169 0"></path><path d="M7.997 9.975a4.001 4.001 0 1 0 8.003 0 4.001 4.001 0 1 0-8.003 0"></path><path d="M2.655 7.156a5.054 5.054 0 1 0 10.108 0 5.054 5.054 0 1 0-10.108 0"></path><path d="M3.585 7.983H12.5v5.993H3.585z"></path></g><g id="SvgjsG1422"><path d="M12.57 11.336c0.436 0 0.787-0.358 0.788-0.801 0-0.437-0.351-0.796-0.788-0.796-0.438 0-0.789 0.358-0.788 0.796 0 0.443 0.351 0.801 0.788 0.801z m-1.822-0.801c0-1.014 0.814-1.839 1.823-1.839 1.004 0 1.818 0.825 1.818 1.839 0 1.019-0.814 1.843-1.818 1.843-1.008 0-1.822-0.825-1.823-1.843z"></path><path d="M15.279 8.566l-0.004-1.856c0-0.739-0.65-0.661-0.65-0.661H10.946L9.604 3.76H8.814l1.342 2.289-1.016 1.739-2.318-0.004c-0.801-1.662-2.428-1.558-2.428-1.558H0v3.95h0.628c0.084-1.344 1.361-2.409 2.71-2.409 1.349 0 2.629 1.068 2.71 2.409l3.82 0.004c0.081-1.345 1.361-2.413 2.71-2.413 1.349 0 2.633 1.068 2.71 2.415l0.237 0.003c0.263 0 0.475-0.216 0.476-0.482v-1.138h-0.721v0.001z"></path><path d="M3.331 11.336c0.437 0 0.791-0.358 0.79-0.801 0-0.437-0.354-0.796-0.791-0.796-0.434 0-0.789 0.358-0.788 0.796 0 0.443 0.355 0.801 0.788 0.801z m-1.819-0.801c0-1.014 0.815-1.839 1.819-1.839 1.008 0 1.82 0.825 1.819 1.839 0 1.019-0.813 1.843-1.82 1.843-1.004 0-1.819-0.825-1.819-1.843z"></path></g><g id="SvgjsG1415"><path d="M12.655 5.134V3.126H12.472c-0.55 0-0.993 0.45-0.993 1.004 0 0.556 0.443 1.003 0.993 1.004h0.183z m-1.497-0.458L10.29 2.924C10.097 2.563 9.724 2.32 9.287 2.32h-2.014C7.083 2.32 6.933 2.474 6.933 2.665c0 0.189 0.15 0.343 0.339 0.343l2.015-0.001c0.164 0 0.345 0.112 0.416 0.268l0.553 1.119 0.901 0.284z m4.002 1.877c0.262 0.075 0.454 0.322 0.454 0.61l-1.466 0.002c-1.931 0-3.499 1.587-3.499 3.539H5.872c0-1.569-1.01-2.898-2.404-3.364L0.835 6.464l0.436-0.674a0.865 0.865 0 0 1 0.724-0.391c0.068 0 0.131 0.006 0.187 0.018l5.864 1.838a0.771 0.771 0 0 0 0.227 0.036c0.265 0 0.496-0.136 0.633-0.343l1.333-1.948 4.921 1.554z"></path><path d="M13.617 12.22c0.496 0 0.893-0.406 0.893-0.901 0-0.501-0.398-0.903-0.893-0.903-0.49 0-0.887 0.402-0.887 0.903 0 0.495 0.398 0.901 0.887 0.901M11.232 11.319c0-1.335 1.068-2.411 2.385-2.411C14.931 8.908 16 9.984 16 11.319c0 1.331-1.069 2.411-2.383 2.411-1.316 0-2.385-1.08-2.385-2.411m-8.603 0.733c0.538 0 0.979-0.442 0.979-0.99 0-0.548-0.442-0.992-0.979-0.991-0.544 0-0.981 0.443-0.981 0.991 0 0.548 0.437 0.99 0.981 0.99M0 11.06c0-1.461 1.174-2.65 2.623-2.65 1.451 0 2.621 1.189 2.621 2.65 0 1.465-1.17 2.654-2.621 2.654C1.174 13.714 0 12.525 0 11.06"></path></g><g id="SvgjsG1412"><path d="M13.165 5.485L5.295 15.96l1.814-7.368-4.222 0.071L9.733 0 7.677 5.489l5.488-0.004z" fill-rule="evenodd"></path></g><g id="SvgjsG1417"><path d="M1.28 6.244l1.052 0.608 0.281 0.163-0.821 1.419a0.83 0.83 0 0 0-0.114 0.414c0 0.139 0.036 0.277 0.11 0.402 0 0 0.718 1.25 1.305 2.261 0.043-0.142 0.096-0.281 0.171-0.414L4.871 8.32l0.277 0.16 1.056 0.612-1.642-2.845L1.28 6.244z" fill-rule="evenodd"></path><path d="M4.42 10.222l-0.665 1.149a0.949 0.949 0 0 0-0.135 0.494 0.96 0.96 0 0 0 0.977 0.969H7.84V10.222H4.42zM13.049 2.048l-1.054 0.608-0.279 0.164-0.818-1.423a0.804 0.804 0 0 0-0.704-0.412h-2.614c0.103 0.107 0.196 0.222 0.271 0.355l1.605 2.777-0.281 0.164-1.056 0.608h3.28L13.049 2.048z" fill-rule="evenodd"></path><path d="M8.036 2.773L7.371 1.625A1.019 1.019 0 0 0 7.012 1.262 1.031 1.031 0 0 0 6.524 1.127a0.969 0.969 0 0 0-0.835 0.498l-1.627 2.809 2.263 1.301c0.244-0.423 1.561-2.702 1.707-2.962m2.699 11.561v-1.541l1.635 0.003a0.811 0.811 0 0 0 0.418-0.113 0.775 0.775 0 0 0 0.302-0.295l1.303-2.258c-0.142 0.028-0.29 0.057-0.439 0.057H10.734v-0.324l0.004-1.218-1.646 2.845 1.639 2.844z" fill-rule="evenodd"></path><path d="M12.608 9.628h1.326a0.988 0.988 0 0 0 0.854-0.485 0.978 0.978 0 0 0-0.008-0.972l-1.621-2.813-2.261 1.305 1.71 2.965" fill-rule="evenodd"></path></g><g id="SvgjsG1428"><use xlink:href="#SvgjsG1412" transform="translate(0, 0) scale(2)" fill="#0f457b"></use><use xlink:href="#SvgjsG1413" transform="translate(0, 48) scale(2)" fill="#0f457b"></use><use xlink:href="#SvgjsG1414" transform="translate(0, 96) scale(2)" fill="#0f457b"></use><use xlink:href="#SvgjsG1415" transform="translate(0, 144) scale(2)" fill="#0f457b"></use><use xlink:href="#SvgjsG1416" transform="translate(0, 192) scale(2)" fill="#0f457b"></use><use xlink:href="#SvgjsG1417" transform="translate(0, 240) scale(2)" fill="#0f457b"></use><use xlink:href="#SvgjsG1415" transform="translate(0, 288) scale(2)" fill="#0f457b"></use><use xlink:href="#SvgjsG1418" transform="translate(0, 336) scale(2)" fill="#0f457b"></use><use xlink:href="#SvgjsG1415" transform="translate(0, 384) scale(2)" fill="#0f457b"></use><use xlink:href="#SvgjsG1417" transform="translate(0, 432) scale(2)" fill="#0f457b"></use><use xlink:href="#SvgjsG1419" transform="translate(48, 0) scale(2)" fill="#0f457b"></use><use xlink:href="#SvgjsG1420" transform="translate(48, 48) scale(2)" fill="#0f457b"></use><use xlink:href="#SvgjsG1412" transform="translate(48, 96) scale(2)" fill="#0f457b"></use><use xlink:href="#SvgjsG1420" transform="translate(48, 144) scale(2)" fill="#0f457b"></use><use xlink:href="#SvgjsG1421" transform="translate(48, 192) scale(2)" fill="#0f457b"></use><use xlink:href="#SvgjsG1422" transform="translate(48, 240) scale(2)" fill="#0f457b"></use><use xlink:href="#SvgjsG1423" transform="translate(48, 288) scale(2)" fill="#0f457b"></use><use xlink:href="#SvgjsG1422" transform="translate(48, 336) scale(2)" fill="#0f457b"></use><use xlink:href="#SvgjsG1420" transform="translate(48, 384) scale(2)" fill="#0f457b"></use><use xlink:href="#SvgjsG1413" transform="translate(48, 432) scale(2)" fill="#0f457b"></use><use xlink:href="#SvgjsG1424" transform="translate(96, 0) scale(2)" fill="#0f457b"></use><use xlink:href="#SvgjsG1416" transform="translate(96, 48) scale(2)" fill="#0f457b"></use><use xlink:href="#SvgjsG1421" transform="translate(96, 96) scale(2)" fill="#0f457b"></use><use xlink:href="#SvgjsG1418" transform="translate(96, 144) scale(2)" fill="#0f457b"></use><use xlink:href="#SvgjsG1425" transform="translate(96, 192) scale(2)" fill="#0f457b"></use><use xlink:href="#SvgjsG1425" transform="translate(96, 240) scale(2)" fill="#0f457b"></use><use xlink:href="#SvgjsG1426" transform="translate(96, 288) scale(2)" fill="#0f457b"></use><use xlink:href="#SvgjsG1421" transform="translate(96, 336) scale(2)" fill="#0f457b"></use><use xlink:href="#SvgjsG1418" transform="translate(96, 384) scale(2)" fill="#0f457b"></use><use xlink:href="#SvgjsG1413" transform="translate(96, 432) scale(2)" fill="#0f457b"></use><use xlink:href="#SvgjsG1426" transform="translate(144, 0) scale(2)" fill="#0f457b"></use><use xlink:href="#SvgjsG1425" transform="translate(144, 48) scale(2)" fill="#0f457b"></use><use xlink:href="#SvgjsG1416" transform="translate(144, 96) scale(2)" fill="#0f457b"></use><use xlink:href="#SvgjsG1412" transform="translate(144, 144) scale(2)" fill="#0f457b"></use><use xlink:href="#SvgjsG1414" transform="translate(144, 192) scale(2)" fill="#0f457b"></use><use xlink:href="#SvgjsG1414" transform="translate(144, 240) scale(2)" fill="#0f457b"></use><use xlink:href="#SvgjsG1422" transform="translate(144, 288) scale(2)" fill="#0f457b"></use><use xlink:href="#SvgjsG1418" transform="translate(144, 336) scale(2)" fill="#0f457b"></use><use xlink:href="#SvgjsG1413" transform="translate(144, 384) scale(2)" fill="#0f457b"></use><use xlink:href="#SvgjsG1425" transform="translate(144, 432) scale(2)" fill="#0f457b"></use><use xlink:href="#SvgjsG1412" transform="translate(192, 0) scale(2)" fill="#0f457b"></use><use xlink:href="#SvgjsG1427" transform="translate(192, 48) scale(2)" fill="#0f457b"></use><use xlink:href="#SvgjsG1414" transform="translate(192, 96) scale(2)" fill="#0f457b"></use><use xlink:href="#SvgjsG1423" transform="translate(192, 144) scale(2)" fill="#0f457b"></use><use xlink:href="#SvgjsG1417" transform="translate(192, 192) scale(2)" fill="#0f457b"></use><use xlink:href="#SvgjsG1423" transform="translate(192, 240) scale(2)" fill="#0f457b"></use><use xlink:href="#SvgjsG1412" transform="translate(192, 288) scale(2)" fill="#0f457b"></use><use xlink:href="#SvgjsG1413" transform="translate(192, 336) scale(2)" fill="#0f457b"></use><use xlink:href="#SvgjsG1424" transform="translate(192, 384) scale(2)" fill="#0f457b"></use><use xlink:href="#SvgjsG1416" transform="translate(192, 432) scale(2)" fill="#0f457b"></use><use xlink:href="#SvgjsG1413" transform="translate(240, 0) scale(2)" fill="#0f457b"></use><use xlink:href="#SvgjsG1423" transform="translate(240, 48) scale(2)" fill="#0f457b"></use><use xlink:href="#SvgjsG1418" transform="translate(240, 96) scale(2)" fill="#0f457b"></use><use xlink:href="#SvgjsG1417" transform="translate(240, 144) scale(2)" fill="#0f457b"></use><use xlink:href="#SvgjsG1422" transform="translate(240, 192) scale(2)" fill="#0f457b"></use><use xlink:href="#SvgjsG1420" transform="translate(240, 240) scale(2)" fill="#0f457b"></use><use xlink:href="#SvgjsG1420" transform="translate(240, 288) scale(2)" fill="#0f457b"></use><use xlink:href="#SvgjsG1415" transform="translate(240, 336) scale(2)" fill="#0f457b"></use><use xlink:href="#SvgjsG1420" transform="translate(240, 384) scale(2)" fill="#0f457b"></use><use xlink:href="#SvgjsG1416" transform="translate(240, 432) scale(2)" fill="#0f457b"></use><use xlink:href="#SvgjsG1416" transform="translate(288, 0) scale(2)" fill="#0f457b"></use><use xlink:href="#SvgjsG1425" transform="translate(288, 48) scale(2)" fill="#0f457b"></use><use xlink:href="#SvgjsG1413" transform="translate(288, 96) scale(2)" fill="#0f457b"></use><use xlink:href="#SvgjsG1423" transform="translate(288, 144) scale(2)" fill="#0f457b"></use><use xlink:href="#SvgjsG1412" transform="translate(288, 192) scale(2)" fill="#0f457b"></use><use xlink:href="#SvgjsG1418" transform="translate(288, 240) scale(2)" fill="#0f457b"></use><use xlink:href="#SvgjsG1426" transform="translate(288, 288) scale(2)" fill="#0f457b"></use><use xlink:href="#SvgjsG1422" transform="translate(288, 336) scale(2)" fill="#0f457b"></use><use xlink:href="#SvgjsG1423" transform="translate(288, 384) scale(2)" fill="#0f457b"></use><use xlink:href="#SvgjsG1418" transform="translate(288, 432) scale(2)" fill="#0f457b"></use><use xlink:href="#SvgjsG1427" transform="translate(336, 0) scale(2)" fill="#0f457b"></use><use xlink:href="#SvgjsG1425" transform="translate(336, 48) scale(2)" fill="#0f457b"></use><use xlink:href="#SvgjsG1423" transform="translate(336, 96) scale(2)" fill="#0f457b"></use><use xlink:href="#SvgjsG1414" transform="translate(336, 144) scale(2)" fill="#0f457b"></use><use xlink:href="#SvgjsG1417" transform="translate(336, 192) scale(2)" fill="#0f457b"></use><use xlink:href="#SvgjsG1421" transform="translate(336, 240) scale(2)" fill="#0f457b"></use><use xlink:href="#SvgjsG1417" transform="translate(336, 288) scale(2)" fill="#0f457b"></use><use xlink:href="#SvgjsG1413" transform="translate(336, 336) scale(2)" fill="#0f457b"></use><use xlink:href="#SvgjsG1422" transform="translate(336, 384) scale(2)" fill="#0f457b"></use><use xlink:href="#SvgjsG1423" transform="translate(336, 432) scale(2)" fill="#0f457b"></use><use xlink:href="#SvgjsG1420" transform="translate(384, 0) scale(2)" fill="#0f457b"></use><use xlink:href="#SvgjsG1418" transform="translate(384, 48) scale(2)" fill="#0f457b"></use><use xlink:href="#SvgjsG1419" transform="translate(384, 96) scale(2)" fill="#0f457b"></use><use xlink:href="#SvgjsG1424" transform="translate(384, 144) scale(2)" fill="#0f457b"></use><use xlink:href="#SvgjsG1423" transform="translate(384, 192) scale(2)" fill="#0f457b"></use><use xlink:href="#SvgjsG1425" transform="translate(384, 240) scale(2)" fill="#0f457b"></use><use xlink:href="#SvgjsG1427" transform="translate(384, 288) scale(2)" fill="#0f457b"></use><use xlink:href="#SvgjsG1421" transform="translate(384, 336) scale(2)" fill="#0f457b"></use><use xlink:href="#SvgjsG1414" transform="translate(384, 384) scale(2)" fill="#0f457b"></use><use xlink:href="#SvgjsG1419" transform="translate(384, 432) scale(2)" fill="#0f457b"></use><use xlink:href="#SvgjsG1426" transform="translate(432, 0) scale(2)" fill="#0f457b"></use><use xlink:href="#SvgjsG1427" transform="translate(432, 48) scale(2)" fill="#0f457b"></use><use xlink:href="#SvgjsG1417" transform="translate(432, 96) scale(2)" fill="#0f457b"></use><use xlink:href="#SvgjsG1416" transform="translate(432, 144) scale(2)" fill="#0f457b"></use><use xlink:href="#SvgjsG1414" transform="translate(432, 192) scale(2)" fill="#0f457b"></use><use xlink:href="#SvgjsG1425" transform="translate(432, 240) scale(2)" fill="#0f457b"></use><use xlink:href="#SvgjsG1422" transform="translate(432, 288) scale(2)" fill="#0f457b"></use><use xlink:href="#SvgjsG1419" transform="translate(432, 336) scale(2)" fill="#0f457b"></use><use xlink:href="#SvgjsG1423" transform="translate(432, 384) scale(2)" fill="#0f457b"></use><use xlink:href="#SvgjsG1413" transform="translate(432, 432) scale(2)" fill="#0f457b"></use></g></defs></svg>